<svg version="1.2" xmlns="http://www.w3.org/2000/svg" viewBox="0 0 420 420" width="420" height="420">
	<style>
		.s0 { fill: #000000 } 
	</style>
	<path class="s0" d="m370 0h-320c-27.57 0-50 22.43-50 50v320c0 27.57 22.43 50 50 50h320c27.57 0 50-22.43 50-50v-320c0-27.57-22.43-50-50-50zm-39.94 183.23c-2.27 0.21-4.57 0.35-6.9 0.35-26.23 0-49.28-13.49-62.69-33.88 0 53.49 0 114.35 0 115.37 0 47.09-38.18 85.27-85.27 85.27-47.09 0-85.27-38.18-85.27-85.27 0-47.09 38.18-85.27 85.27-85.27 1.78 0 3.52 0.16 5.27 0.27v42.02c-1.75-0.21-3.47-0.53-5.27-0.53-24.04 0-43.52 19.48-43.52 43.52 0 24.04 19.48 43.52 43.52 43.52 24.04 0 45.27-18.94 45.27-42.98 0-0.95 0.42-195.94 0.42-195.94h40.16c3.78 35.91 32.77 64.25 69.01 66.85z"/>
</svg>