<svg width="203" height="50" viewBox="0 0 203 50" fill="none" xmlns="http://www.w3.org/2000/svg">
<path fill-rule="evenodd" clip-rule="evenodd" d="M56.6901 50L50.9376 39.7892H17.606L34.3753 10.3912L28.5211 0L0 50H56.6901ZM27.4651 34.1548L37.6773 16.2518L47.7635 34.1548H27.4651Z" fill="url(#paint0_linear_64_697)"/>
<path fill-rule="evenodd" clip-rule="evenodd" d="M137.177 32.5527C135.665 33.7038 133.84 34.2794 131.7 34.2794C129.934 34.2794 128.355 33.8696 126.962 33.05C125.568 32.2305 124.647 31.1827 124.2 29.9064L128.155 28.8742C128.342 29.3747 128.768 29.7907 129.433 30.1223C130.099 30.4538 130.855 30.6196 131.7 30.6196C132.683 30.6196 133.533 30.3975 134.248 29.9533C134.963 29.5091 135.32 28.9868 135.32 28.3862C135.32 27.9358 135.05 27.576 134.508 27.307C133.967 27.0381 132.926 26.7096 131.384 26.3217C130.886 26.1966 130.507 26.0965 130.246 26.0214C129.984 25.9464 129.599 25.8306 129.088 25.6742C128.578 25.5178 128.174 25.3646 127.876 25.2144C127.577 25.0643 127.213 24.8735 126.784 24.642C126.355 24.4105 126.013 24.1634 125.758 23.9007C125.503 23.6379 125.251 23.3376 125.002 22.9998C124.753 22.662 124.57 22.2835 124.452 21.8644C124.333 21.4452 124.275 20.9916 124.275 20.5036C124.275 18.9521 125.002 17.6228 126.457 16.5154C127.913 15.4081 129.66 14.8545 131.7 14.8545C133.33 14.8545 134.795 15.2204 136.094 15.9524C137.395 16.6844 138.287 17.6322 138.772 18.7958L134.779 19.8468C134.543 19.4589 134.142 19.1398 133.576 18.8896C133.01 18.6394 132.385 18.5142 131.7 18.5142C130.805 18.5142 130.031 18.7113 129.378 19.1054C128.724 19.4995 128.398 19.9657 128.398 20.5036C128.398 21.0167 128.684 21.4233 129.256 21.7236C129.829 22.0239 130.917 22.3804 132.522 22.7933C133.031 22.9185 133.417 23.0186 133.679 23.0936C133.939 23.1687 134.322 23.2844 134.826 23.4408C135.329 23.5973 135.728 23.7474 136.02 23.8912C136.312 24.0351 136.664 24.2166 137.074 24.4355C137.484 24.6545 137.808 24.8891 138.044 25.1394C138.281 25.3896 138.521 25.6742 138.763 25.9933C139.006 26.3123 139.179 26.6752 139.285 27.0819C139.391 27.4885 139.444 27.9232 139.444 28.3862C139.444 30.0127 138.688 31.4016 137.177 32.5527ZM84.613 29.6045V33.9962H71.9999V15.0406H76.366L76.3846 29.6045H84.613ZM93.8282 15.0411L93.8467 33.9967H89.4621V15.0411H93.8282ZM104.666 33.9967V22.0415L114.294 33.9967H118.679L118.661 15.0599H114.294V27.0151L104.666 15.0411L100.301 15.0599V33.9967H104.666ZM152.54 33.9791C154.767 34.1417 156.782 33.5974 158.585 32.3462C160.09 31.3202 161.198 29.944 161.907 28.2173C162.417 26.9911 162.659 25.7024 162.635 24.351C162.61 22.737 162.218 21.2606 161.459 19.9219C160.638 18.4079 159.456 17.2067 157.914 16.3184C156.484 15.4926 154.947 15.0797 153.305 15.0797C151.539 15.0797 149.916 15.5239 148.436 16.4122C147.801 16.8001 147.223 17.2443 146.7 17.7448C146.178 18.2452 145.764 18.7426 145.459 19.2368C145.155 19.731 144.931 20.1283 144.787 20.4286C144.644 20.7289 144.529 21.0041 144.442 21.2543C143.709 23.2688 143.659 25.2832 144.293 27.2977C144.816 28.9742 145.692 30.3819 146.924 31.5205C148.516 32.9844 150.388 33.8039 152.54 33.9791ZM149.965 28.4237C150.948 29.237 152.042 29.6437 153.249 29.6437C153.871 29.6437 154.474 29.5185 155.059 29.2683C155.643 29.018 156.048 28.7991 156.272 28.6114C156.496 28.4237 156.695 28.236 156.869 28.0484C157.577 27.2977 158.025 26.3905 158.212 25.327C158.424 24.0133 158.162 22.8121 157.429 21.7236C156.981 21.0479 156.43 20.5287 155.777 20.1658C155.125 19.803 154.474 19.5715 153.827 19.4714C153.392 19.4088 152.982 19.4026 152.596 19.4526C152.036 19.5152 151.499 19.6935 150.982 19.9875C150.466 20.2816 150.108 20.5287 149.909 20.7289C149.71 20.9291 149.529 21.123 149.368 21.3106C148.547 22.3242 148.167 23.4815 148.23 24.7827C148.305 26.2717 148.883 27.4853 149.965 28.4237ZM174.238 33.8842C174.885 33.9843 175.519 34.0156 176.141 33.978C176.875 33.928 177.472 33.8279 177.932 33.6777C178.741 33.44 179.524 33.0458 180.283 32.4953C180.743 32.1575 181.16 31.7759 181.533 31.3505C182.143 30.6623 182.603 29.9554 182.914 29.2297C183.249 28.429 183.455 27.5531 183.53 26.6022C183.542 26.427 183.548 26.2081 183.548 25.9453V15.0599H179.163V26.1329C179.163 26.4207 179.145 26.6522 179.108 26.8274C178.971 27.2904 178.809 27.6782 178.623 27.991C178.249 28.5541 177.789 28.9732 177.241 29.2485C176.757 29.4862 176.259 29.6051 175.749 29.6051C175.201 29.6051 174.747 29.5363 174.387 29.3986C173.964 29.236 173.578 28.9982 173.23 28.6855C172.745 28.235 172.409 27.722 172.223 27.1465C172.111 26.7711 172.067 26.3769 172.092 25.9641L172.111 15.0599L167.707 15.0411V25.9641C167.707 26.3269 167.726 26.6772 167.763 27.0151C167.825 27.5907 167.943 28.1412 168.118 28.6666C168.354 29.4299 168.771 30.1869 169.368 30.9376C169.704 31.3755 170.139 31.8134 170.674 32.2513C171.147 32.6267 171.657 32.952 172.204 33.2273C172.938 33.5526 173.616 33.7716 174.238 33.8842ZM202.261 29.6051V33.9967H189.647V15.0411H194.014L194.032 29.6051H202.261Z" fill="black"/>
<path fill-rule="evenodd" clip-rule="evenodd" d="M42.8384 25.4127L37.6773 16.2518L27.465 34.1548H27.4715L42.8384 25.4127ZM17.6247 39.7565L34.3753 10.3912L28.5211 0L0.183228 49.6787L17.6247 39.7565Z" fill="url(#paint1_linear_64_697)"/>
<defs>
<linearGradient id="paint0_linear_64_697" x1="28.4951" y1="6.96692" x2="-10.4893" y2="35.8348" gradientUnits="userSpaceOnUse">
<stop/>
<stop offset="1" stop-color="#404040"/>
</linearGradient>
<linearGradient id="paint1_linear_64_697" x1="28.4951" y1="6.96692" x2="-10.4893" y2="35.8349" gradientUnits="userSpaceOnUse">
<stop stop-color="#A9A9A9" stop-opacity="0.26"/>
<stop offset="1" stop-color="#7F7F7F"/>
</linearGradient>
</defs>
</svg>
