<svg enable-background="new 0 0 371.243 38.961" height="18px" viewBox="0 0 371.243 38.961" width="171.5px" x="0px" xml:space="preserve" xmlns="http://www.w3.org/2000/svg" xmlns:xlink="http://www.w3.org/1999/xlink" y="0px">
<title>SHENZHENAUDIO.COM</title>
<path d="M25.362,35.654c0,2.205-1.471,3.674-4.778,3.674H5.146c-2.94,0-4.778-1.102-4.778-3.674v-9.188h7.719v8.086h9.189v-7.72
      	L1.838,15.806C0.735,15.071,0,13.968,0,12.864V4.045C0,1.84,1.47,0.368,4.778,0.368h15.438c2.94,0,4.778,1.103,4.778,3.677v8.819
      	h-7.719v-7.35H8.086v6.981l15.438,11.027c1.103,0.736,1.838,1.838,1.838,3.31V35.654z"></path>
<path d="M57.341,38.96h-7.72V21.686H39.329V38.96H31.61V0.001h7.719v16.172h10.292V0.001h7.72V38.96z"></path>
<path d="M84.54,38.96H63.222V0.001h20.951v5.145H70.941V16.54h11.395v5.146H70.941v12.129h13.6L84.54,38.96L84.54,38.96z"></path>
<path d="M115.783,38.96h-6.616L97.038,14.333c0.367,1.104,0.367,2.205,0.367,2.941V38.96h-7.352V0.001h6.616l12.13,23.891
      	c-0.367-1.103-0.367-2.205-0.367-2.939V-0.367h7.351V38.96z"></path>
<path d="M143.352,38.96h-23.524v-2.938l14.335-30.508h-13.232V0.367h22.422v3.31l-14.336,30.141h14.336L143.352,38.96L143.352,38.96
      	z"></path>
<path d="M173.491,38.96h-7.719V21.686H155.48V38.96h-7.719V0.001h7.719v16.172h10.292V0.001h7.719V38.96z"></path>
<path d="M201.06,38.96h-21.319V0.001h20.951v5.145H187.46V16.54h11.395v5.146H187.46v12.129h13.601L201.06,38.96L201.06,38.96z"></path>
<path d="M231.935,38.96h-6.616l-12.13-24.627c0.368,1.104,0.368,2.205,0.368,2.941V38.96h-7.352V0.001h6.616l12.13,23.891
      	c-0.367-1.103-0.367-2.205-0.367-2.939V-0.367h7.351V38.96z"></path>
<path d="M263.913,38.96h-7.72l-1.471-7.352h-9.556l-1.47,7.352h-7.719l0,0l9.924-38.961h8.086L263.913,38.96z M253.988,26.832
      	l-3.676-17.643l-3.676,17.643H253.988z"></path>
<path d="M294.055,35.654c0,2.205-1.471,3.674-4.779,3.674h-16.172c-2.94,0-4.778-1.102-4.778-3.674V0.367h7.718v33.816h10.292V0.367
      	h7.72V35.654L294.055,35.654z"></path>
<path d="M325.665,31.609c0,2.207-0.735,4.045-2.573,5.514c-1.838,1.472-4.043,1.839-7.352,1.839h-15.438V0.001h15.438
      	c2.94,0,5.514,0.733,7.352,1.838c1.839,1.102,2.573,2.938,2.573,5.514L325.665,31.609L325.665,31.609z M317.945,30.876V8.453
      	c0-2.205-1.471-3.309-4.41-3.309h-5.514v29.039h5.514C316.477,34.184,317.945,33.08,317.945,30.876z"></path>
<path d="M339.266,38.96h-7.72V0.001h7.72V38.96z"></path>
<path d="M371.243,35.654c0,2.205-1.472,3.674-4.778,3.674h-16.541c-2.939,0-4.41-1.102-4.41-3.674V4.044
      	c0-2.205,1.471-3.677,4.41-3.677h16.541c2.939,0,4.778,1.103,4.778,3.677V35.654z M363.523,34.184V5.145h-10.66v29.039H363.523z"></path>
</svg>